<svg width="14" height="10" viewBox="0 0 14 10" fill="none" xmlns="http://www.w3.org/2000/svg">
<path d="M4.34375 4.37402H9.6875C9.69375 4.37402 9.70156 4.37402 9.70781 4.37246C9.77656 4.36152 9.82188 4.29746 9.81094 4.22871L9.18281 0.353711C9.17344 0.292773 9.12031 0.249023 9.05938 0.249023H4.97188C4.91094 0.249023 4.85781 0.292773 4.84844 0.353711L4.22031 4.22871C4.21875 4.23496 4.21875 4.24277 4.21875 4.24902C4.21875 4.31777 4.275 4.37402 4.34375 4.37402ZM5.76875 1.31152H8.26094L8.58438 3.31152H5.44375L5.76875 1.31152ZM5.80781 5.72871C5.79844 5.66777 5.74531 5.62402 5.68438 5.62402H1.59688C1.53594 5.62402 1.48281 5.66777 1.47344 5.72871L0.845312 9.60371C0.84375 9.60996 0.84375 9.61777 0.84375 9.62402C0.84375 9.69277 0.9 9.74902 0.96875 9.74902H6.3125C6.31875 9.74902 6.32656 9.74902 6.33281 9.74746C6.40156 9.73652 6.44688 9.67246 6.43594 9.60371L5.80781 5.72871ZM2.07031 8.68652L2.39375 6.68652H4.88594L5.20938 8.68652H2.07031ZM13.1547 9.60371L12.5266 5.72871C12.5172 5.66777 12.4641 5.62402 12.4031 5.62402H8.31563C8.25469 5.62402 8.20156 5.66777 8.19219 5.72871L7.56406 9.60371C7.5625 9.60996 7.5625 9.61777 7.5625 9.62402C7.5625 9.69277 7.61875 9.74902 7.6875 9.74902H13.0313C13.0375 9.74902 13.0453 9.74902 13.0516 9.74746C13.1188 9.73652 13.1656 9.67246 13.1547 9.60371ZM8.78906 8.68652L9.1125 6.68652H11.6047L11.9281 8.68652H8.78906Z" fill="white"/>
</svg>
